<?xml version="1.0" encoding="UTF-8"?>
<svg width="40px" height="40px" viewBox="0 0 40 40" version="1.1" xmlns="http://www.w3.org/2000/svg">
    <g id="Plugin-Icon" stroke="none" stroke-width="1" fill="none" fill-rule="evenodd">
        <g id="mark" transform="translate(5.000000, 4.000000)" fill="#BF4722">
            <path d="M7.98582405,4.62662403 L14.199296,8.86790402 C14.339552,8.96128002 14.50336,9.01241602 14.671456,9.01529602 C14.839808,9.01408002 15.004064,8.96278402 15.143616,8.86790402 L21.361824,4.61235203 C21.603424,4.43936003 21.736672,4.15097603 21.712448,3.85340803 C21.688224,3.55587203 21.510144,3.29318403 21.243776,3.16213123 L15.030304,0.0857747519 C14.794592,-0.028591584 14.52,-0.028591584 14.284288,0.0857747519 L8.08969605,3.16213123 C7.81852805,3.29388803 7.63808005,3.56166403 7.61664005,3.86406403 C7.59520005,4.16649603 7.73600005,4.45737603 7.98582405,4.62662403 Z M16.781952,10.199232 C16.782464,10.48048 16.920128,10.743552 17.15024,10.902944 L22.131424,14.307392 C22.450304,14.527232 22.87696,14.499776 23.16544,14.2408 L27.343968,10.503552 C27.530176,10.337184 27.6336,10.096224 27.626304,9.84563202 C27.619008,9.59504002 27.50176,9.36057602 27.306176,9.20547202 L23.316512,6.01500803 C23.026528,5.78464003 22.621984,5.76924803 22.315552,5.97696003 L17.15024,9.50979202 C16.924192,9.66627202 16.78704,9.92304002 16.781952,10.199232 L16.781952,10.199232 Z M4.39273605,14.8304 C4.59408005,15.011264 4.69756805,15.278016 4.67132805,15.548384 C4.64518405,15.820352 4.48809605,16.062048 4.25110405,16.19504 L1.27656005,17.97808 C0.975033654,18.158336 0.594320054,18.13232 0.319701494,17.912768 C0.0450838946,17.693216 -0.0663922653,17.325696 0.0395267746,16.989088 L1.13963525,13.527584 C1.22593605,13.253344 1.44468485,13.041984 1.72038085,12.966528 C1.99586885,12.886368 2.29293765,12.95664 2.50415045,13.151968 L4.39273605,14.8304 Z M20.526112,15.191776 L15.14832,11.511552 C14.862528,11.319232 14.489824,11.319232 14.204032,11.511552 L8.82624005,15.191776 C8.61235205,15.339808 8.47683205,15.577728 8.45795205,15.838432 C8.44403205,16.100928 8.54806405,16.35584 8.74124805,16.532608 L14.114336,21.339712 C14.26928,21.47792 14.469184,21.554048 14.676192,21.5536972 C14.883072,21.5536972 15.082848,21.477536 15.238048,21.339712 L20.611104,16.532608 C20.804896,16.356576 20.907584,16.100608 20.889664,15.838432 C20.874656,15.57776 20.740352,15.338848 20.526112,15.191776 L20.526112,15.191776 Z M6.18220805,14.2408 L2.00839685,10.50352 C1.82059845,10.332928 1.71696325,10.08768 1.72510725,9.83312002 C1.72964805,9.58220802 1.84576325,9.34659202 2.04144645,9.19120002 L6.03110405,5.98172803 C6.32313605,5.75200003 6.72848005,5.73667203 7.03680005,5.94368003 L12.197408,9.47651202 C12.436896,9.63356802 12.581344,9.90188802 12.581344,10.189728 C12.581344,10.477536 12.436896,10.745888 12.197408,10.902944 L7.22092805,14.30736 C6.90012805,14.526272 6.47289605,14.49888 6.18220805,14.2408 L6.18220805,14.2408 Z M27.613088,19.608992 L23.363744,17.065152 C23.04816,16.874976 22.646464,16.913504 22.372224,17.160256 L17.178592,21.796192 C16.95952,21.99184 16.856608,22.287776 16.906624,22.578304 C16.95664,22.868864 17.152416,23.11264 17.424096,23.222624 L24.62912,26.14208 C24.727936,26.183136 24.833824,26.204128 24.940736,26.2039082 C25.275104,26.20496 25.578688,26.00736 25.71504,25.699872 L27.94832,20.697824 C28.13008,20.301984 27.985344,19.83184 27.613088,19.608992 Z M28.203264,13.527616 L29.303392,16.989088 L29.293952,16.989088 C29.375296,17.248 29.329056,17.530496 29.169504,17.74944 C29.009952,17.968352 28.756224,18.097472 28.48656,18.0969647 C28.335264,18.097472 28.18672,18.056352 28.056896,17.97808 L25.077632,16.19504 C24.845504,16.059264 24.693888,15.817792 24.671584,15.548384 C24.643744,15.277792 24.74752,15.010336 24.950144,14.830432 L26.838752,13.147232 C27.052128,12.956 27.346944,12.88624 27.622528,12.961792 C27.898016,13.04048 28.116064,13.252928 28.203264,13.527616 L28.203264,13.527616 Z M12.442912,22.575968 C12.493696,22.286624 12.391808,21.991456 12.173792,21.796192 L6.98012805,17.160256 C6.70588805,16.913504 6.30419205,16.874976 5.98860805,17.065152 L1.73926085,19.608992 C1.37133445,19.832832 1.22576645,20.297056 1.39931525,20.693088 L3.63731205,25.695136 C3.82272005,26.112224 4.30208005,26.307424 4.72326405,26.137312 L11.923552,23.217888 C12.195296,23.108864 12.391776,22.866048 12.442912,22.575968 L12.442912,22.575968 Z M14.992512,24.002432 L20.771648,26.341792 C21.054208,26.46272 21.249408,26.72848 21.281568,27.036 C21.318144,27.347328 21.179872,27.653312 20.92272,27.830048 L15.13888,31.84784 C15.000288,31.945216 14.835744,31.99824 14.666752,32 C14.497888,31.997376 14.3336,31.944416 14.194592,31.84784 L8.41548805,27.830048 C8.15737605,27.653792 8.01744005,27.348096 8.05190405,27.036 C8.09049605,26.72528 8.29273605,26.459808 8.58073605,26.341792 L14.35984,24.002432 C14.563072,23.921408 14.789312,23.921408 14.992512,24.002432 L14.992512,24.002432 Z"
                  id="Shape"/>
        </g>
    </g>
</svg>
