<svg xmlns="http://www.w3.org/2000/svg" width="40" height="40">
    <path fill="#BF4722" fill-rule="evenodd" d="m12.986 8.627 6.213 4.24a.88.88 0 0 0 .472.148.85.85 0 0 0 .473-.147l6.218-4.256a.849.849 0 0 0-.118-1.45L20.03 4.086a.854.854 0 0 0-.746 0L13.09 7.162a.848.848 0 0 0-.104 1.464Zm8.796 5.572c0 .281.138.545.368.704l4.981 3.404a.836.836 0 0 0 1.034-.066l4.179-3.737a.85.85 0 0 0-.038-1.299l-3.99-3.19a.845.845 0 0 0-1-.038L22.15 13.51a.858.858 0 0 0-.368.69ZM9.392 18.83c.202.181.306.448.28.718a.832.832 0 0 1-.42.647l-2.975 1.783a.84.84 0 0 1-.957-.065.855.855 0 0 1-.28-.924l1.1-3.461a.843.843 0 0 1 1.364-.376l1.889 1.678Zm16.134.362-5.378-3.68a.845.845 0 0 0-.944 0l-5.378 3.68a.862.862 0 0 0-.368.646.878.878 0 0 0 .283.695l5.373 4.807a.842.842 0 0 0 1.124 0l5.373-4.807a.859.859 0 0 0 .279-.695.843.843 0 0 0-.364-.646Zm-14.344-.951-4.174-3.737a.868.868 0 0 1-.283-.67.839.839 0 0 1 .316-.643l3.99-3.21a.854.854 0 0 1 1.006-.037l5.16 3.533a.853.853 0 0 1 0 1.426l-4.976 3.404a.845.845 0 0 1-1.039-.066Zm21.431 5.368-4.25-2.544a.836.836 0 0 0-.99.095l-5.194 4.636a.855.855 0 0 0 .245 1.427l7.205 2.92a.845.845 0 0 0 1.086-.442l2.233-5.003a.854.854 0 0 0-.335-1.089Zm.59-6.081 1.1 3.461h-.009a.856.856 0 0 1-.124.76.843.843 0 0 1-1.113.23l-2.98-1.784a.828.828 0 0 1-.405-.647.845.845 0 0 1 .278-.718l1.889-1.683a.84.84 0 0 1 .784-.185.857.857 0 0 1 .58.566Zm-15.76 9.048a.85.85 0 0 0-.27-.78L11.98 21.16a.836.836 0 0 0-.991-.095l-4.25 2.544a.864.864 0 0 0-.34 1.084l2.238 5.002a.843.843 0 0 0 1.086.442l7.2-2.92a.85.85 0 0 0 .52-.641Zm2.55 1.426 5.779 2.34a.85.85 0 0 1 .51.694.844.844 0 0 1-.36.794l-5.783 4.018a.836.836 0 0 1-.472.152.85.85 0 0 1-.472-.152l-5.78-4.018a.849.849 0 0 1-.363-.794.865.865 0 0 1 .529-.694l5.779-2.34a.854.854 0 0 1 .633 0Z"/>
</svg>
