<?xml version="1.0" encoding="UTF-8"?>
<svg width="16px" height="16px" viewBox="0 0 16 16" version="1.1" xmlns="http://www.w3.org/2000/svg">
    <g id="Generator-Icon" stroke="none" stroke-width="1" fill="none" fill-rule="evenodd">
        <g id="mark" transform="translate(2.000000, 2.000000)" fill="#BF4722">
            <path d="M3.19432962,1.85064961 L5.67971842,3.54716161 C5.73582082,3.58451201 5.80134402,3.60496641 5.86858242,3.60611841 C5.93592322,3.60563201 6.00162562,3.58511361 6.05744642,3.54716161 L8.54472961,1.84494081 C8.64136961,1.77574401 8.69466881,1.66039041 8.68497921,1.54136321 C8.67528961,1.42234881 8.60405761,1.31727361 8.49751041,1.26485249 L6.01212162,0.0343099008 C5.91783682,-0.0114366336 5.80800002,-0.0114366336 5.71371522,0.0343099008 L3.23587842,1.26485249 C3.12741122,1.31755521 3.05523202,1.42466561 3.04665602,1.54562561 C3.03808002,1.66659841 3.09440002,1.78295041 3.19432962,1.85064961 Z M6.71278082,4.07969281 C6.71298562,4.19219201 6.76805122,4.29742081 6.86009602,4.36117761 L8.85256961,5.72295681 C8.98012161,5.81089281 9.15078401,5.79991041 9.26617601,5.69632001 L10.9375872,4.20142081 C11.0120704,4.13487361 11.05344,4.03848961 11.0505216,3.93825281 C11.0476032,3.83801601 11.000704,3.74423041 10.9224704,3.68218881 L9.32660481,2.40600321 C9.21061121,2.31385601 9.04879361,2.30769921 8.92622081,2.39078401 L6.86009602,3.80391681 C6.76967682,3.86650881 6.71481602,3.96921601 6.71278082,4.07969281 L6.71278082,4.07969281 Z M1.75709442,5.93216001 C1.83763202,6.00450561 1.87902722,6.11120641 1.86853122,6.21935361 C1.85807362,6.32814081 1.79523842,6.42481921 1.70044162,6.47801601 L0.510624021,7.19123201 C0.390013461,7.26333441 0.237728022,7.25292801 0.127880598,7.16510721 C0.0180335579,7.07728641 -0.0265569061,6.93027841 0.0158107099,6.79563521 L0.455854101,5.41103361 C0.490374421,5.30133761 0.577873941,5.21679361 0.688152341,5.18661121 C0.798347541,5.15454721 0.917175061,5.18265601 1.00166018,5.26078721 L1.75709442,5.93216001 Z M8.21044481,6.07671041 L6.05932802,4.60462081 C5.94501122,4.52769281 5.79592962,4.52769281 5.68161282,4.60462081 L3.53049602,6.07671041 C3.44494082,6.13592321 3.39073282,6.23109121 3.38318082,6.33537281 C3.37761282,6.44037121 3.41922562,6.54233601 3.49649922,6.61304321 L5.64573442,8.5358848 C5.70771202,8.591168 5.78767362,8.6216192 5.87047682,8.62147889 C5.95322882,8.62147889 6.03313922,8.5910144 6.09521922,8.5358848 L8.24444161,6.61304321 C8.32195841,6.54263041 8.36303361,6.44024321 8.35586561,6.33537281 C8.34986241,6.23110401 8.29614081,6.13553921 8.21044481,6.07671041 L8.21044481,6.07671041 Z M2.47288322,5.69632001 L0.803358741,4.20140801 C0.728239381,4.13317121 0.686785301,4.03507201 0.690042901,3.93324801 C0.691859221,3.83288321 0.738305301,3.73863681 0.816578581,3.67648001 L2.41244162,2.39269121 C2.52925442,2.30080001 2.69139202,2.29466881 2.81472002,2.37747201 L4.87896322,3.79060481 C4.97475842,3.85342721 5.03253762,3.96075521 5.03253762,4.07589121 C5.03253762,4.19101441 4.97475842,4.29835521 4.87896322,4.36117761 L2.88837122,5.72294401 C2.76005122,5.81050881 2.58915842,5.79955201 2.47288322,5.69632001 L2.47288322,5.69632001 Z M11.0452352,7.8435968 L9.34549761,6.82606081 C9.21926401,6.74999041 9.05858561,6.76540161 8.94888961,6.86410241 L6.87143681,8.7184768 C6.78380802,8.796736 6.74264322,8.9151104 6.76264962,9.0313216 C6.78265602,9.1475456 6.86096642,9.245056 6.96963841,9.2890496 L9.85164801,10.456832 C9.89117441,10.4732544 9.93352961,10.4816512 9.97629441,10.4815633 C10.1100416,10.481984 10.2314752,10.402944 10.286016,10.2799488 L11.179328,8.2791296 C11.252032,8.1207936 11.1941376,7.932736 11.0452352,7.8435968 Z M11.2813056,5.41104641 L11.7213568,6.79563521 L11.7175808,6.79563521 C11.7501184,6.89920001 11.7316224,7.01219841 11.6678016,7.09977601 C11.6039808,7.18734081 11.5024896,7.23898881 11.394624,7.23878589 C11.3341056,7.23898881 11.274688,7.22254081 11.2227584,7.19123201 L10.0310528,6.47801601 C9.93820161,6.42370561 9.87755521,6.32711681 9.86863361,6.21935361 C9.85749761,6.11111681 9.89900801,6.00413441 9.98005761,5.93217281 L10.7355008,5.25889281 C10.8208512,5.18240001 10.9387776,5.15449601 11.0490112,5.18471681 C11.1592064,5.21619201 11.2464256,5.30117121 11.2813056,5.41104641 L11.2813056,5.41104641 Z M4.97716482,9.0303872 C4.99747842,8.9146496 4.95672322,8.7965824 4.86951682,8.7184768 L2.79205122,6.86410241 C2.68235522,6.76540161 2.52167682,6.74999041 2.39544322,6.82606081 L0.695704341,7.8435968 C0.548533781,7.9331328 0.490306581,8.1188224 0.559726101,8.2772352 L1.45492482,10.2780544 C1.52908802,10.4448896 1.72083202,10.5229696 1.88930562,10.4549248 L4.76942082,9.2871552 C4.87811842,9.2435456 4.95671042,9.1464192 4.97716482,9.0303872 L4.97716482,9.0303872 Z M5.99700482,9.6009728 L8.30865921,10.5367168 C8.42168321,10.585088 8.49976321,10.691392 8.51262721,10.8144 C8.52725761,10.9389312 8.47194881,11.0613248 8.36908801,11.1320192 L6.05555202,12.739136 C6.00011522,12.7780864 5.93429762,12.799296 5.86670082,12.8 C5.79915522,12.7989504 5.73344002,12.7777664 5.67783682,12.739136 L3.36619522,11.1320192 C3.26295042,11.0615168 3.20697602,10.9392384 3.22076162,10.8144 C3.23619842,10.690112 3.31709442,10.5839232 3.43229442,10.5367168 L5.74393602,9.6009728 C5.82522882,9.5685632 5.91572482,9.5685632 5.99700482,9.6009728 L5.99700482,9.6009728 Z"
                  id="Shape"/>
        </g>
    </g>
</svg>
