<svg xmlns="http://www.w3.org/2000/svg" width="16" height="16">
    <path fill="#BF4722" fill-rule="evenodd" d="M5.194 3.85 7.68 5.548a.352.352 0 0 0 .189.06.34.34 0 0 0 .188-.06l2.488-1.702a.34.34 0 0 0-.047-.58l-2.486-1.23a.342.342 0 0 0-.298 0l-2.478 1.23a.339.339 0 0 0-.042.586Zm3.519 2.23c0 .112.055.217.147.281l1.993 1.362a.334.334 0 0 0 .413-.027l1.672-1.495a.34.34 0 0 0-.016-.519l-1.595-1.276a.338.338 0 0 0-.4-.015L8.86 5.804a.343.343 0 0 0-.147.276ZM3.757 7.932c.08.073.122.18.112.287a.333.333 0 0 1-.169.259l-1.19.713a.336.336 0 0 1-.382-.026.342.342 0 0 1-.112-.37l.44-1.384a.337.337 0 0 1 .546-.15l.755.671Zm6.453.145L8.06 6.605a.338.338 0 0 0-.378 0L5.53 8.077a.345.345 0 0 0-.147.258.351.351 0 0 0 .113.278l2.15 1.923a.337.337 0 0 0 .45 0l2.148-1.923a.344.344 0 0 0-.034-.536Zm-5.737-.38L2.803 6.2a.347.347 0 0 1 .014-.525l1.595-1.283a.342.342 0 0 1 .403-.016l2.064 1.414a.341.341 0 0 1 0 .57l-1.99 1.362a.338.338 0 0 1-.416-.027Zm8.572 2.147-1.7-1.018a.334.334 0 0 0-.396.038L8.87 10.718a.342.342 0 0 0 .099.571l2.882 1.168a.338.338 0 0 0 .434-.177l.893-2a.342.342 0 0 0-.134-.436Zm.236-2.433.44 1.385h-.003a.342.342 0 0 1-.05.304.337.337 0 0 1-.445.091l-1.192-.713a.331.331 0 0 1-.162-.259.338.338 0 0 1 .111-.287l.756-.673a.336.336 0 0 1 .545.152Zm-6.304 3.62a.34.34 0 0 0-.107-.313L4.792 8.864a.334.334 0 0 0-.397-.038l-1.7 1.018a.346.346 0 0 0-.135.433l.895 2.001a.337.337 0 0 0 .434.177l2.88-1.168a.34.34 0 0 0 .208-.257Zm1.02.57 2.312.936a.34.34 0 0 1 .204.277.338.338 0 0 1-.144.318l-2.313 1.607a.335.335 0 0 1-.19.061.34.34 0 0 1-.188-.06l-2.312-1.608a.34.34 0 0 1 .066-.595l2.312-.936a.341.341 0 0 1 .253 0Z"/>
</svg>
